<svg xmlns="http://www.w3.org/2000/svg" width="200" height="200" viewBox="0 0 1080 1080"><path fill="#334FFF" stroke="#334FFF" stroke-width="1" d="M 516.00,95.21 C 516.00,95.21 503.00,96.17 503.00,96.17 503.00,96.17 475.00,99.43 475.00,99.43 445.11,103.86 415.44,111.56 387.00,121.69 371.24,127.30 355.95,134.28 341.00,141.75 250.00,187.25 177.80,261.47 135.31,354.00 86.96,459.28 81.85,580.94 120.69,690.00 138.24,739.28 164.49,784.58 197.61,825.00 218.86,850.93 246.09,876.50 273.00,896.52 311.19,924.94 353.85,947.28 399.00,962.33 434.48,974.16 473.61,982.41 511.00,984.04 511.00,984.04 522.00,985.00 522.00,985.00 522.00,985.00 556.00,985.00 556.00,985.00 556.00,985.00 568.00,983.96 568.00,983.96 568.00,983.96 577.00,983.96 577.00,983.96 615.98,980.12 653.06,972.45 690.00,959.31 821.23,912.61 923.64,806.00 964.98,673.00 975.63,638.72 981.64,603.73 984.09,568.00 984.09,568.00 985.00,556.00 985.00,556.00 985.00,556.00 985.00,523.00 985.00,523.00 985.00,523.00 983.96,513.00 983.96,513.00 983.96,513.00 983.96,504.00 983.96,504.00 981.88,483.49 978.87,463.13 974.42,443.00 937.21,274.51 805.47,142.78 637.00,105.58 616.72,101.10 597.67,98.14 577.00,96.04 577.00,96.04 568.00,96.04 568.00,96.04 568.00,96.04 556.00,95.21 556.00,95.21 556.00,95.21 516.00,95.21 516.00,95.21 Z M 591.00,348.00 C 591.00,348.00 567.80,407.00 567.80,407.00 567.80,407.00 559.00,430.00 559.00,430.00 535.51,420.60 512.68,409.09 488.00,402.89 456.58,395.00 419.79,396.95 392.00,414.86 369.20,429.56 354.86,450.99 345.42,476.00 337.33,497.47 334.46,519.30 332.91,542.00 332.91,542.00 332.00,554.00 332.00,554.00 331.92,607.31 339.60,677.66 392.00,706.21 399.27,710.17 406.99,713.31 415.00,715.37 423.86,717.65 435.91,719.99 445.00,720.00 445.00,720.00 463.00,720.00 463.00,720.00 483.76,719.97 513.59,712.79 534.00,707.63 534.00,707.63 573.00,696.00 573.00,696.00 573.00,696.00 573.00,771.00 573.00,771.00 573.00,773.21 573.22,776.71 571.98,778.58 570.16,781.32 558.54,784.82 555.00,786.00 537.44,791.86 519.35,796.57 501.00,799.13 485.11,801.34 471.10,802.97 455.00,803.00 455.00,803.00 443.00,803.91 443.00,803.91 443.00,803.91 430.00,803.00 430.00,803.00 379.36,802.41 325.74,785.27 290.04,748.00 259.82,716.46 244.24,678.20 235.80,636.00 233.55,624.73 230.13,602.12 230.00,591.00 230.00,591.00 229.00,572.00 229.00,572.00 229.00,572.00 229.00,549.00 229.00,549.00 229.00,549.00 230.83,525.00 230.83,525.00 235.45,478.84 247.76,436.20 275.00,398.00 281.67,388.65 290.52,377.84 299.00,370.17 312.80,357.68 327.48,347.36 344.00,338.78 386.19,316.87 441.36,311.47 488.00,317.29 503.79,319.25 524.62,324.04 540.00,328.43 540.00,328.43 573.00,340.42 573.00,340.42 573.00,340.42 591.00,348.00 591.00,348.00 Z M 886.00,322.00 C 886.00,322.00 870.05,366.00 870.05,366.00 870.05,366.00 839.42,448.00 839.42,448.00 839.42,448.00 750.42,687.00 750.42,687.00 750.42,687.00 719.05,771.00 719.05,771.00 719.05,771.00 712.69,788.00 712.69,788.00 712.69,788.00 708.58,795.98 708.58,795.98 708.58,795.98 701.00,797.00 701.00,797.00 701.00,797.00 620.00,797.00 620.00,797.00 620.00,797.00 634.95,756.00 634.95,756.00 634.95,756.00 665.58,674.00 665.58,674.00 665.58,674.00 755.32,433.00 755.32,433.00 755.32,433.00 787.05,348.00 787.05,348.00 787.05,348.00 793.32,331.00 793.32,331.00 793.32,331.00 797.50,323.02 797.50,323.02 797.50,323.02 805.00,322.00 805.00,322.00 805.00,322.00 886.00,322.00 886.00,322.00 Z" /></svg>