<svg xmlns="http://www.w3.org/2000/svg" width="200" height="200" viewBox="0 0 1080 1080"> <path id="cvlogolock" fill="#334FFF" stroke="#334FFF" stroke-width="1" d="M 509.00,93.21 C 509.00,93.21 498.00,94.17 498.00,94.17 498.00,94.17 473.00,97.27 473.00,97.27 445.98,101.25 415.72,108.54 390.00,117.69 268.17,161.04 173.04,252.06 124.60,372.00 108.86,410.99 99.01,452.20 94.83,494.00 94.83,494.00 93.00,515.00 93.00,515.00 93.00,515.00 93.00,563.00 93.00,563.00 93.00,563.00 93.91,573.00 93.91,573.00 95.16,590.87 97.48,608.41 101.00,626.00 112.84,685.20 134.49,737.74 168.00,788.00 180.59,806.88 194.61,825.38 210.09,842.00 260.19,895.78 316.48,932.58 385.00,958.42 423.27,972.86 464.27,981.29 505.00,984.09 505.00,984.09 515.00,985.00 515.00,985.00 515.00,985.00 560.00,985.00 560.00,985.00 575.07,984.98 597.86,981.77 613.00,979.25 663.08,970.90 712.81,953.61 757.00,928.58 801.77,903.22 842.01,870.96 875.72,832.00 930.93,768.18 967.43,688.47 979.73,605.00 979.73,605.00 984.00,561.00 984.00,561.00 984.00,561.00 984.00,517.00 984.00,517.00 983.98,503.72 980.68,478.52 978.41,465.00 971.20,422.02 957.74,380.22 938.74,341.00 920.88,304.13 895.28,267.34 867.83,237.00 867.83,237.00 849.00,218.00 849.00,218.00 811.47,180.47 763.66,149.71 715.00,128.72 681.99,114.48 647.43,104.53 612.00,98.59 597.57,96.17 574.32,93.02 560.00,93.21 560.00,93.21 509.00,93.21 509.00,93.21 Z M 527.00,330.00 C 527.00,330.00 495.00,412.00 495.00,412.00 473.47,402.87 446.44,390.50 424.00,384.89 411.96,381.88 402.21,381.24 390.00,380.32 390.00,380.32 381.00,380.96 381.00,380.96 362.26,381.78 345.11,386.07 329.00,396.06 304.83,411.06 289.03,435.50 280.00,462.00 273.04,482.45 270.38,501.61 268.91,523.00 268.91,523.00 268.00,535.00 268.00,535.00 267.93,581.80 272.43,636.73 307.01,672.00 312.50,677.59 320.13,683.89 327.00,687.69 334.56,691.87 342.63,695.22 351.00,697.37 359.86,699.65 371.91,701.99 381.00,702.00 381.00,702.00 399.00,702.00 399.00,702.00 415.34,701.97 442.83,696.57 459.00,692.53 459.00,692.53 509.00,678.00 509.00,678.00 509.00,678.00 509.00,753.00 509.00,753.00 509.00,755.21 509.22,758.71 507.98,760.58 506.16,763.32 494.54,766.82 491.00,768.00 473.44,773.86 455.35,778.58 437.00,781.13 421.30,783.31 405.86,784.98 390.00,785.00 390.00,785.00 379.00,785.82 379.00,785.82 379.00,785.82 367.00,785.00 367.00,785.00 317.00,784.42 262.45,767.84 227.04,731.00 174.86,676.70 164.16,602.12 165.00,530.00 165.00,530.00 166.83,507.00 166.83,507.00 174.66,428.75 207.52,357.11 281.00,320.37 335.57,293.08 404.76,291.59 463.00,306.88 478.93,311.07 490.73,315.04 506.00,321.20 506.00,321.20 527.00,330.00 527.00,330.00 Z M 822.00,304.00 C 822.00,304.00 807.42,344.00 807.42,344.00 807.42,344.00 782.05,412.00 782.05,412.00 782.05,412.00 686.32,669.00 686.32,669.00 686.32,669.00 655.05,753.00 655.05,753.00 655.05,753.00 648.68,770.00 648.68,770.00 648.68,770.00 644.50,777.98 644.50,777.98 644.50,777.98 637.00,779.00 637.00,779.00 637.00,779.00 556.00,779.00 556.00,779.00 556.00,779.00 572.58,734.00 572.58,734.00 572.58,734.00 604.58,648.00 604.58,648.00 604.58,648.00 691.81,414.00 691.81,414.00 691.81,414.00 723.05,330.00 723.05,330.00 723.05,330.00 729.81,312.00 729.81,312.00 729.81,312.00 733.51,305.02 733.51,305.02 733.51,305.02 741.00,304.00 741.00,304.00 741.00,304.00 822.00,304.00 822.00,304.00 Z M 847.00,655.00 C 864.08,655.01 877.97,660.47 878.00,680.00 878.00,680.00 878.00,755.00 878.00,755.00 878.00,758.08 878.12,761.03 877.15,764.00 871.52,781.27 856.41,780.00 842.00,780.00 842.00,780.00 819.00,780.00 819.00,780.00 819.00,780.00 742.00,780.00 742.00,780.00 723.33,779.97 716.03,768.37 716.00,751.00 716.00,751.00 716.00,696.00 716.00,696.00 716.00,687.63 714.98,675.37 718.92,668.00 724.87,656.85 735.53,655.01 747.00,655.00 747.00,634.88 744.86,615.97 757.62,598.75 776.80,572.86 822.23,574.32 839.07,602.00 849.52,619.16 847.00,635.86 847.00,655.00 Z M 760.00,655.00 C 760.00,655.00 835.00,655.00 835.00,655.00 835.00,639.41 837.16,621.49 827.78,608.01 812.97,586.74 777.53,587.90 764.90,611.00 757.80,623.98 760.00,640.57 760.00,655.00 Z M 737.00,668.70 C 729.21,672.30 729.01,676.17 729.00,684.00 729.00,684.00 729.00,752.00 729.00,752.00 729.02,764.47 733.81,767.94 746.00,768.00 746.00,768.00 847.00,768.00 847.00,768.00 853.24,767.99 860.26,768.00 863.91,761.96 866.94,756.97 866.00,745.07 866.00,739.00 866.00,739.00 866.00,685.00 866.00,685.00 865.98,672.97 862.51,668.02 850.00,668.00 850.00,668.00 775.00,668.00 775.00,668.00 775.00,668.00 737.00,668.70 737.00,668.70 Z M 794.00,693.39 C 802.93,692.21 811.07,696.89 809.77,707.00 808.66,715.67 803.08,712.55 803.00,724.00 803.00,724.00 803.00,734.00 803.00,734.00 802.84,745.47 794.90,742.89 792.74,740.49 790.25,737.72 791.01,728.80 791.00,725.00 791.00,722.86 791.12,720.01 790.41,718.00 789.37,715.07 779.21,704.13 789.33,695.65 791.04,694.22 792.00,694.05 794.00,693.39 Z" /></svg>