<?xml version="1.0" encoding="UTF-8"?>
<svg version="1.1" xmlns="http://www.w3.org/2000/svg" width="890" height="892">
<path d="M0 0 C3.51453003 -0.00217349 7.0287386 -0.02035206 10.54321289 -0.03930664 C29.75189185 -0.08750064 48.85441687 0.93366085 67.86547852 3.81030273 C68.94998291 3.97361084 70.0344873 4.13691895 71.15185547 4.30517578 C123.33472427 12.59632031 173.89751751 29.53084058 220.11547852 55.18530273 C221.24783936 55.81251221 221.24783936 55.81251221 222.40307617 56.45239258 C240.11821931 66.36059215 256.97390301 77.89584934 273.11547852 90.18530273 C273.69313965 90.62406738 274.27080078 91.06283203 274.8659668 91.51489258 C295.6692551 107.39398287 316.21192909 125.14477834 333.25219727 145.04467773 C335.40434629 147.5171676 337.63528571 149.90801631 339.86547852 152.31030273 C345.64638032 158.65967445 350.92786964 165.34642681 356.11547852 172.18530273 C356.56536133 172.77827148 357.01524414 173.37124023 357.47875977 173.98217773 C404.41984721 236.20955591 434.87654917 308.88375628 445.11547852 386.18530273 C445.33977539 387.77930908 445.33977539 387.77930908 445.56860352 389.40551758 C450.58895012 426.21958943 450.44966619 465.42893214 445.11547852 502.18530273 C444.93855469 503.42489746 444.76163086 504.66449219 444.5793457 505.94165039 C440.50248406 533.75091644 433.96186262 560.51907942 425.11547852 587.18530273 C424.76114746 588.25635254 424.40681641 589.32740234 424.04174805 590.4309082 C410.25347524 631.57717125 389.74841467 670.20912771 364.11547852 705.18530273 C363.61661133 705.86963379 363.11774414 706.55396484 362.60375977 707.2590332 C353.77436166 719.33703697 344.34716349 730.74014887 334.27563477 741.80639648 C332.85479587 743.3711178 331.44552749 744.94643802 330.04907227 746.53295898 C321.63887484 756.0583207 312.72402078 765.3495423 303.01391602 773.56420898 C300.78647818 775.46623923 298.6452488 777.45137993 296.49047852 779.43530273 C290.28987558 785.02151666 283.73718308 790.11335881 277.11547852 795.18530273 C276.47271973 795.6796582 275.82996094 796.17401367 275.16772461 796.68334961 C259.87029451 808.41981289 243.85708885 818.7504669 227.40209961 828.78735352 C225.56749426 829.90895828 223.7405828 831.04314365 221.91625977 832.18139648 C211.77251871 838.3564914 200.88665937 843.22146496 190.11547852 848.18530273 C188.70830566 848.83402344 188.70830566 848.83402344 187.27270508 849.49584961 C130.89562637 875.25348712 70.06875968 888.37486336 8.17602539 888.37060547 C4.65050984 888.37278112 1.12531359 888.39096596 -2.40014648 888.40991211 C-21.3033602 888.45732176 -39.99653885 887.35603704 -58.69702148 884.49780273 C-60.34154297 884.24788574 -60.34154297 884.24788574 -62.01928711 883.99291992 C-103.36972732 877.46935298 -142.84202479 865.97612535 -180.95776367 848.52319336 C-183.68940258 847.27449623 -186.43041651 846.0490224 -189.17358398 844.82592773 C-241.10800922 821.28344671 -292.00561229 782.75564288 -328.88452148 739.18530273 C-329.79619182 738.13617739 -330.70906226 737.08809432 -331.62280273 736.04077148 C-338.34867581 728.30781 -344.77061533 720.41205387 -350.88452148 712.18530273 C-351.37001465 711.5364209 -351.85550781 710.88753906 -352.35571289 710.21899414 C-371.77579425 684.17244541 -388.90060915 656.00505933 -401.88452148 626.18530273 C-402.30121094 625.23381348 -402.71790039 624.28232422 -403.1472168 623.30200195 C-422.15205392 579.44948391 -434.35091656 532.77638908 -438.88452148 485.18530273 C-438.98023438 484.21858643 -439.07594727 483.25187012 -439.17456055 482.25585938 C-440.22913916 469.94771743 -440.12830344 457.59199224 -440.13452148 445.24780273 C-440.13519623 444.04422119 -440.13587097 442.84063965 -440.13656616 441.60058594 C-440.11996918 422.94122987 -439.56810593 404.67712013 -436.88452148 386.18530273 C-436.70759766 384.94570801 -436.53067383 383.70611328 -436.34838867 382.42895508 C-430.51344573 342.62738833 -420.02483626 304.04239554 -403.88452148 267.18530273 C-403.49022949 266.2687793 -403.0959375 265.35225586 -402.68969727 264.40795898 C-391.36336525 238.09416076 -377.04741135 213.79271215 -360.88452148 190.18530273 C-360.4254541 189.51337891 -359.96638672 188.84145508 -359.4934082 188.14916992 C-353.24827326 179.06140526 -346.41525068 170.51031435 -339.39038086 162.01586914 C-338.02602184 160.35731468 -336.67766372 158.68775907 -335.33764648 157.00952148 C-331.37675591 152.07206652 -327.30513786 147.46869456 -322.76342773 143.06030273 C-320.97233145 141.27293015 -319.3328379 139.42702111 -317.69702148 137.49780273 C-310.71601304 129.39599018 -302.97225096 121.7581585 -294.81811523 114.84155273 C-292.58115213 112.92544697 -290.42648571 110.93017417 -288.25952148 108.93530273 C-282.60598437 103.8358642 -276.64736078 99.1770118 -270.62084961 94.53198242 C-269.01564427 93.28700033 -267.42590311 92.02214809 -265.83764648 90.75561523 C-247.29019294 76.10024391 -226.94155617 63.73434441 -206.20532227 52.4543457 C-203.99462351 51.2455079 -201.79676882 50.01574734 -199.59936523 48.78295898 C-150.91102613 21.86961403 -93.15336529 5.93109857 -37.88452148 1.18530273 C-36.86028076 1.09176514 -35.83604004 0.99822754 -34.78076172 0.90185547 C-23.19918794 -0.02260332 -11.61193972 -0.00080022 0 0 Z " fill="#334FFF" transform="translate(439.884521484375,1.814697265625)"/>
<path d="M0 0 C1.65177246 0.29753174 1.65177246 0.29753174 3.33691406 0.60107422 C32.26118814 5.93682598 60.70113891 15.85056946 87 29 C84.68167581 37.56762067 81.44046191 45.73164445 78.125 53.94921875 C77.55319379 55.37533098 76.98174861 56.80158801 76.41064453 58.22798157 C74.91639757 61.95694072 73.41684694 65.68374487 71.91625977 69.41015625 C70.6951628 72.44516625 69.47793482 75.48172054 68.26089478 78.51835918 C66.80026404 82.16251475 65.33786018 85.80595766 63.875 89.44921875 C63.59964417 90.13515295 63.32428833 90.82108715 63.04058838 91.52780724 C62.25456163 93.48465684 61.46733557 95.44101931 60.6796875 97.3972168 C60.01042236 99.06073433 60.01042236 99.06073433 59.32763672 100.75785828 C57.92249813 104.18926264 56.46934141 107.59567015 55 111 C48.68123912 109.0207992 42.67130706 106.62573641 36.625 103.9375 C28.16112506 100.24230922 19.60088203 96.88585454 10.9375 93.6875 C9.83293457 93.27943115 8.72836914 92.8713623 7.59033203 92.45092773 C-6.55766778 87.18307239 -6.55766778 87.18307239 -21.125 83.3125 C-22.20007813 83.08175781 -23.27515625 82.85101563 -24.3828125 82.61328125 C-49.37617195 78.37574622 -79.33656714 78.31609556 -102 91 C-102.88042969 91.43957031 -103.76085937 91.87914062 -104.66796875 92.33203125 C-131.07478579 105.85202362 -149.28542954 131.24066231 -158.67529297 158.99609375 C-160.27057094 163.95657604 -161.65735103 168.96621589 -163 174 C-163.27457031 174.99459229 -163.27457031 174.99459229 -163.5546875 176.00927734 C-169.13098611 196.40014464 -170.50088025 217.40960417 -170.33618164 238.46704102 C-170.31242513 241.69768112 -170.31568081 244.92749642 -170.32226562 248.15820312 C-170.29925535 266.0753071 -169.49705451 284.04149556 -165.8125 301.625 C-165.59891846 302.66076172 -165.38533691 303.69652344 -165.1652832 304.76367188 C-160.40976645 326.73243981 -151.81448973 347.23851321 -138 365 C-137.31550781 365.88558594 -136.63101563 366.77117187 -135.92578125 367.68359375 C-132.96865314 371.24054501 -129.574585 374.07974582 -126 377 C-125.21882812 377.64195312 -124.43765625 378.28390625 -123.6328125 378.9453125 C-96.76435487 399.77040884 -59.74680837 403.00172244 -26.9921875 399.27734375 C-12.99808152 397.47270659 0.79043411 394.7995755 14.52050781 391.57177734 C16.7247974 391.06346243 18.93153697 390.59387368 21.1484375 390.14453125 C32.30877596 387.8119 43.00970583 384.10580016 53.75805664 380.3527832 C54.39572464 380.13308365 55.03339264 379.91338409 55.69038391 379.68702698 C57.44501915 379.08199676 59.19672916 378.46850235 60.94824219 377.85449219 C64 377 64 377 69 377 C69 404.72 69 432.44 69 461 C39.64860427 471.56650246 39.64860427 471.56650246 30 474 C28.91332031 474.28520508 28.91332031 474.28520508 27.8046875 474.57617188 C-38.93393995 492.02169257 -117.73850316 492.14857711 -178.84277344 457.28662109 C-184.51508166 453.90352191 -189.78000643 450.03601006 -195 446 C-195.90492188 445.31808594 -196.80984375 444.63617187 -197.7421875 443.93359375 C-226.68975527 421.29951628 -245.87584384 390.44687801 -258.19238281 356.22021484 C-258.83803004 354.44527049 -259.5187315 352.68309131 -260.2109375 350.92578125 C-273.74228614 316.4479049 -275.37655269 277.35867048 -275.4375 240.8125 C-275.44349213 239.63044983 -275.44948425 238.44839966 -275.45565796 237.23052979 C-275.6860172 169.01932294 -255.71096758 102.08180645 -207.125 52.8125 C-200.50762711 46.23312679 -193.69415953 40.30875576 -186 35 C-185.35450195 34.55317871 -184.70900391 34.10635742 -184.04394531 33.64599609 C-174.10274369 26.83930183 -163.89401035 21.12312919 -153 16 C-152.10667969 15.55269531 -151.21335937 15.10539062 -150.29296875 14.64453125 C-135.41137154 7.40293513 -119.50027067 3.43962328 -103.375 0.125 C-102.64497772 -0.026203 -101.91495544 -0.17740601 -101.16281128 -0.33319092 C-68.46677729 -7.04476031 -32.7318765 -6.16416814 0 0 Z " fill="#FEFEFF" transform="translate(328,228)"/>
<path d="M0 0 C29.7 0 59.4 0 90 0 C89.25523097 4.4686142 88.52107452 7.65993078 86.92895508 11.76513672 C86.49959152 12.88276398 86.07022797 14.00039124 85.62785339 15.15188599 C85.15898209 16.35731049 84.69011078 17.56273499 84.20703125 18.8046875 C83.1948047 21.43486701 82.1867927 24.06665878 81.17822266 26.69824219 C80.91648475 27.37953501 80.65474684 28.06082783 80.38507748 28.76276588 C77.53915344 36.17829879 74.77198352 43.62256143 72.01171875 51.0703125 C71.49889192 52.45252493 70.98602329 53.83472185 70.47311401 55.21690369 C69.42072487 58.05353896 68.36890417 60.89038417 67.31750488 63.72738647 C64.76367741 70.61822026 62.20626754 77.50772498 59.64910507 84.3973217 C59.06813009 85.96263296 58.48718982 87.52795709 57.90628433 89.09329414 C52.20224632 104.46353069 46.48050223 119.82710913 40.75 135.1875 C40.30533386 136.37950012 39.86066772 137.57150024 39.40252686 138.79962158 C37.16821408 144.78888441 34.93357346 150.77802484 32.69873047 156.76708984 C28.53266201 167.93197148 24.36920446 179.09782683 20.20571899 190.26367188 C18.82171401 193.97528991 17.43759714 197.68686621 16.0534668 201.3984375 C11.67364993 213.14355668 7.29560563 224.88933166 2.921875 236.63671875 C1.30212266 240.98699381 -0.31766389 245.33725613 -1.9375 249.6875 C-2.3331012 250.74995941 -2.72870239 251.81241882 -3.1362915 252.90707397 C-7.80573816 265.44618457 -12.48868801 277.98004478 -17.19546509 290.50518799 C-24.42949452 309.75604256 -31.59291493 329.03294422 -38.75 348.3125 C-39.17216923 349.44970049 -39.17216923 349.44970049 -39.60286713 350.60987473 C-40.73725086 353.665573 -41.87162024 356.7212766 -43.00598907 359.7769804 C-43.84903883 362.04793707 -44.69209668 364.31889073 -45.53515625 366.58984375 C-45.81230217 367.33640669 -46.08944809 368.08296963 -46.37499237 368.85215569 C-51.25992524 382.01062705 -56.15051455 395.16698052 -61.04968262 408.32015991 C-61.77828683 410.27633441 -62.50673564 412.23256679 -63.23498535 414.18887329 C-70.78644618 434.47312081 -78.40015204 454.73373876 -86 475 C-115.7 475 -145.4 475 -176 475 C-175.31930239 470.91581432 -174.78178609 468.00485627 -173.37133789 464.2890625 C-173.03386032 463.39149734 -172.69638275 462.49393219 -172.34867859 461.56916809 C-171.97709122 460.59759262 -171.60550385 459.62601715 -171.22265625 458.625 C-170.8289534 457.58168015 -170.43525055 456.53836029 -170.02961731 455.46342468 C-169.16782467 453.18113912 -168.3035759 450.89977987 -167.43719482 448.61923218 C-165.29681645 442.9841442 -163.17171226 437.34330331 -161.04550934 431.70285606 C-160.28337942 429.68159924 -159.52059611 427.66058983 -158.75775146 425.63960266 C-153.01692262 410.42363626 -147.36076859 395.17632667 -141.70605469 379.92819595 C-140.31565309 376.17938461 -138.92443197 372.43087746 -137.53320312 368.68237305 C-137.25936735 367.94455377 -136.98553158 367.20673449 -136.70339775 366.44655704 C-136.15415759 364.9667083 -135.60491178 363.48686166 -135.05566025 362.00701714 C-134.24286688 359.81704293 -133.43016157 357.62703606 -132.61746216 355.43702698 C-127.77605863 342.3916982 -122.92220236 329.35102308 -118.0625 316.3125 C-117.68185394 315.29118988 -117.30120789 314.26987976 -116.9090271 313.21762085 C-115.39590915 309.15792512 -113.88268978 305.09826722 -112.36927795 301.03868103 C-109.70601168 293.89469062 -107.04404371 286.75021748 -104.3828125 279.60546875 C-96.15931994 257.52771029 -87.93195495 235.45140041 -79.6999054 213.37683105 C-72.44360263 193.91869507 -65.18826452 174.46020052 -57.9375 155 C-57.54160675 153.93752045 -57.1457135 152.87504089 -56.73782349 151.78036499 C-52.47712546 140.34501364 -48.22144868 128.90783786 -43.97802734 117.46606445 C-36.56407269 97.47552324 -29.07796262 77.51223587 -21.58491516 57.55122375 C-17.89818013 47.72990255 -14.21461695 37.90739309 -10.53149414 28.0847168 C-7.02123402 18.72305532 -3.51057831 9.36154217 0 0 Z " fill="#FEFEFF" transform="translate(620,231)"/>
<path d="M0 0 C0.91426758 -0.01474365 1.82853516 -0.0294873 2.77050781 -0.04467773 C15.7450715 0.15052516 26.46371315 6.77519098 35.375 15.9375 C40.93060398 22.66341281 44.77353269 30.87080543 48.8125 38.5625 C49.70195313 40.22925781 49.70195313 40.22925781 50.609375 41.9296875 C51.8125 44.5625 51.8125 44.5625 51.8125 47.5625 C48.1825 49.2125 44.5525 50.8625 40.8125 52.5625 C40.06484375 51.19996094 39.3171875 49.83742188 38.546875 48.43359375 C37.55211443 46.62237875 36.55732103 44.81118179 35.5625 43 C34.82580078 41.65711914 34.82580078 41.65711914 34.07421875 40.28710938 C33.10511895 38.52334774 32.13323639 36.76111195 31.15844727 35.00048828 C30.32936515 33.49872627 29.50784152 31.99272652 28.69897461 30.47998047 C24.9502469 23.59770089 18.47420804 17.35159974 10.859375 14.9453125 C1.57800849 12.57629238 -7.3162196 12.75839986 -16.1875 16.5625 C-18.6586018 18.09723235 -20.8785996 19.78272261 -23.1875 21.5625 C-23.8475 21.5625 -24.5075 21.5625 -25.1875 21.5625 C-25.1875 22.2225 -25.1875 22.8825 -25.1875 23.5625 C-25.8475 23.5625 -26.5075 23.5625 -27.1875 23.5625 C-27.45304688 24.11164062 -27.71859375 24.66078125 -27.9921875 25.2265625 C-28.83653068 26.87661878 -29.74457464 28.49480625 -30.6953125 30.0859375 C-35.76018415 39.01674983 -36.93748356 46.8422435 -34.33203125 56.84765625 C-32.17479926 62.90704848 -29.22036245 68.42774662 -26 73.96875 C-25.63197266 74.6071582 -25.26394531 75.24556641 -24.88476562 75.90332031 C-23.98816429 77.45781743 -23.08818675 79.01036643 -22.1875 80.5625 C-21.24948547 80.56027939 -20.31147095 80.55805878 -19.34503174 80.55577087 C-10.46022097 80.53540768 -1.57541499 80.52046479 7.30941391 80.51068783 C11.87604503 80.50549227 16.44265715 80.4984558 21.00927734 80.48706055 C25.42483962 80.47611249 29.84038374 80.47019817 34.25595856 80.46762276 C35.93185969 80.46578982 37.60775995 80.46221106 39.28365326 80.45676994 C65.9663054 80.37366658 65.9663054 80.37366658 72.5 83.9375 C73.30824219 84.35773438 74.11648438 84.77796875 74.94921875 85.2109375 C76.8125 86.5625 76.8125 86.5625 77.8125 89.5625 C78.8025 89.8925 79.7925 90.2225 80.8125 90.5625 C84.4323948 96.68847581 84.96243484 102.16295298 84.97363281 109.14746094 C84.97859772 109.89451294 84.98356262 110.64156494 84.98867798 111.41125488 C85.00323543 113.87313777 85.0100913 116.33495621 85.015625 118.796875 C85.02138228 120.51694743 85.02713993 122.23701986 85.03289795 123.95709229 C85.04339008 127.56156715 85.04924425 131.16601984 85.05273438 134.77050781 C85.05821154 139.37132421 85.08223044 143.97184356 85.11070633 148.57256699 C85.12940426 152.12608678 85.13454213 155.67953608 85.13607025 159.23310089 C85.1390818 160.92824169 85.14705928 162.6233817 85.16025543 164.31847382 C85.30509905 184.3562932 85.30509905 184.3562932 79.25 192.125 C78.445625 192.929375 77.64125 193.73375 76.8125 194.5625 C76.1525 194.5625 75.4925 194.5625 74.8125 194.5625 C74.8125 195.2225 74.8125 195.8825 74.8125 196.5625 C68.56106041 199.89101508 63.12848555 199.99561018 56.12915039 199.96655273 C54.97055008 199.97341599 53.81194977 199.98027924 52.61824036 199.98735046 C48.79875337 200.00561101 44.97967741 200.00178186 41.16015625 199.99609375 C39.17186635 199.99950217 37.18357626 200.00291873 35.1952886 200.00744683 C28.94826254 200.02146789 22.7013733 200.01995105 16.4543457 200.00854492 C10.02572404 199.99706607 3.59751969 200.01114054 -2.831047 200.0379414 C-8.36590432 200.06014597 -13.9006311 200.06672512 -19.43552977 200.06086498 C-22.73450562 200.05750548 -26.03315608 200.06156698 -29.33210564 200.07711601 C-33.01330323 200.09202272 -36.69358653 200.08134972 -40.37475586 200.06420898 C-41.99824951 200.07871094 -41.99824951 200.07871094 -43.65454102 200.09350586 C-51.0761148 200.02128516 -56.51310344 198.86094479 -62.2109375 193.74609375 C-62.65695312 193.16988281 -63.10296875 192.59367188 -63.5625 192 C-64.02398438 191.42121094 -64.48546875 190.84242188 -64.9609375 190.24609375 C-69.25286164 184.35494947 -69.33716548 178.97964713 -69.34863281 171.86401367 C-69.35359772 171.11681564 -69.35856262 170.36961761 -69.36367798 169.59977722 C-69.37820738 167.14333148 -69.38508588 164.68695029 -69.390625 162.23046875 C-69.39345238 161.38666468 -69.39627975 160.5428606 -69.39919281 159.67348671 C-69.41414765 155.20867223 -69.42340067 150.74388976 -69.42773438 146.27905273 C-69.43321557 141.68611212 -69.45724678 137.09346845 -69.48570633 132.50062084 C-69.50440222 128.95139225 -69.50954198 125.40223425 -69.51107025 121.85296059 C-69.51408129 120.16061084 -69.52205698 118.46826188 -69.53525543 116.77596092 C-69.69109798 95.25961064 -69.69109798 95.25961064 -62.8125 87.91015625 C-55.70965105 82.01957238 -48.20329994 80.73290172 -39.1875 80.5625 C-40.66420403 75.59540463 -42.76543663 71.01907348 -44.96875 66.34375 C-49.43314909 56.15576233 -50.91559417 44.22548121 -47.1875 33.5625 C-40.94869722 18.93414928 -33.15040777 9.45255851 -18.4375 2.625 C-12.3101297 0.42468391 -6.48582874 0.06898662 0 0 Z " fill="#334FFF" transform="translate(684.1875,506.4375)"/>
<path d="M0 0 C0.91426758 -0.01474365 1.82853516 -0.0294873 2.77050781 -0.04467773 C15.7450715 0.15052516 26.46371315 6.77519098 35.375 15.9375 C40.93060398 22.66341281 44.77353269 30.87080543 48.8125 38.5625 C49.70195313 40.22925781 49.70195313 40.22925781 50.609375 41.9296875 C51.8125 44.5625 51.8125 44.5625 51.8125 47.5625 C48.1825 49.2125 44.5525 50.8625 40.8125 52.5625 C40.06484375 51.19996094 39.3171875 49.83742188 38.546875 48.43359375 C37.55211443 46.62237875 36.55732103 44.81118179 35.5625 43 C34.82580078 41.65711914 34.82580078 41.65711914 34.07421875 40.28710938 C33.10511895 38.52334774 32.13323639 36.76111195 31.15844727 35.00048828 C30.32936515 33.49872627 29.50784152 31.99272652 28.69897461 30.47998047 C24.9502469 23.59770089 18.47420804 17.35159974 10.859375 14.9453125 C1.57800849 12.57629238 -7.3162196 12.75839986 -16.1875 16.5625 C-18.6586018 18.09723235 -20.8785996 19.78272261 -23.1875 21.5625 C-23.8475 21.5625 -24.5075 21.5625 -25.1875 21.5625 C-25.1875 22.2225 -25.1875 22.8825 -25.1875 23.5625 C-25.8475 23.5625 -26.5075 23.5625 -27.1875 23.5625 C-27.45304688 24.11164062 -27.71859375 24.66078125 -27.9921875 25.2265625 C-28.83653068 26.87661878 -29.74457464 28.49480625 -30.6953125 30.0859375 C-35.76018415 39.01674983 -36.93748356 46.8422435 -34.33203125 56.84765625 C-32.17479926 62.90704848 -29.22036245 68.42774662 -26 73.96875 C-25.63197266 74.6071582 -25.26394531 75.24556641 -24.88476562 75.90332031 C-23.98816429 77.45781743 -23.08818675 79.01036643 -22.1875 80.5625 C-21.24948547 80.56027939 -20.31147095 80.55805878 -19.34503174 80.55577087 C-10.46022097 80.53540768 -1.57541499 80.52046479 7.30941391 80.51068783 C11.87604503 80.50549227 16.44265715 80.4984558 21.00927734 80.48706055 C25.42483962 80.47611249 29.84038374 80.47019817 34.25595856 80.46762276 C35.93185969 80.46578982 37.60775995 80.46221106 39.28365326 80.45676994 C65.9663054 80.37366658 65.9663054 80.37366658 72.5 83.9375 C73.30824219 84.35773438 74.11648438 84.77796875 74.94921875 85.2109375 C76.8125 86.5625 76.8125 86.5625 77.8125 89.5625 C78.8025 89.8925 79.7925 90.2225 80.8125 90.5625 C84.4323948 96.68847581 84.96243484 102.16295298 84.97363281 109.14746094 C84.97859772 109.89451294 84.98356262 110.64156494 84.98867798 111.41125488 C85.00323543 113.87313777 85.0100913 116.33495621 85.015625 118.796875 C85.02138228 120.51694743 85.02713993 122.23701986 85.03289795 123.95709229 C85.04339008 127.56156715 85.04924425 131.16601984 85.05273438 134.77050781 C85.05821154 139.37132421 85.08223044 143.97184356 85.11070633 148.57256699 C85.12940426 152.12608678 85.13454213 155.67953608 85.13607025 159.23310089 C85.1390818 160.92824169 85.14705928 162.6233817 85.16025543 164.31847382 C85.30509905 184.3562932 85.30509905 184.3562932 79.25 192.125 C78.445625 192.929375 77.64125 193.73375 76.8125 194.5625 C76.1525 194.5625 75.4925 194.5625 74.8125 194.5625 C74.8125 195.2225 74.8125 195.8825 74.8125 196.5625 C68.56106041 199.89101508 63.12848555 199.99561018 56.12915039 199.96655273 C54.97055008 199.97341599 53.81194977 199.98027924 52.61824036 199.98735046 C48.79875337 200.00561101 44.97967741 200.00178186 41.16015625 199.99609375 C39.17186635 199.99950217 37.18357626 200.00291873 35.1952886 200.00744683 C28.94826254 200.02146789 22.7013733 200.01995105 16.4543457 200.00854492 C10.02572404 199.99706607 3.59751969 200.01114054 -2.831047 200.0379414 C-8.36590432 200.06014597 -13.9006311 200.06672512 -19.43552977 200.06086498 C-22.73450562 200.05750548 -26.03315608 200.06156698 -29.33210564 200.07711601 C-33.01330323 200.09202272 -36.69358653 200.08134972 -40.37475586 200.06420898 C-41.99824951 200.07871094 -41.99824951 200.07871094 -43.65454102 200.09350586 C-51.0761148 200.02128516 -56.51310344 198.86094479 -62.2109375 193.74609375 C-62.65695312 193.16988281 -63.10296875 192.59367188 -63.5625 192 C-64.02398438 191.42121094 -64.48546875 190.84242188 -64.9609375 190.24609375 C-69.25286164 184.35494947 -69.33716548 178.97964713 -69.34863281 171.86401367 C-69.35359772 171.11681564 -69.35856262 170.36961761 -69.36367798 169.59977722 C-69.37820738 167.14333148 -69.38508588 164.68695029 -69.390625 162.23046875 C-69.39345238 161.38666468 -69.39627975 160.5428606 -69.39919281 159.67348671 C-69.41414765 155.20867223 -69.42340067 150.74388976 -69.42773438 146.27905273 C-69.43321557 141.68611212 -69.45724678 137.09346845 -69.48570633 132.50062084 C-69.50440222 128.95139225 -69.50954198 125.40223425 -69.51107025 121.85296059 C-69.51408129 120.16061084 -69.52205698 118.46826188 -69.53525543 116.77596092 C-69.69109798 95.25961064 -69.69109798 95.25961064 -62.8125 87.91015625 C-55.70965105 82.01957238 -48.20329994 80.73290172 -39.1875 80.5625 C-40.66420403 75.59540463 -42.76543663 71.01907348 -44.96875 66.34375 C-49.43314909 56.15576233 -50.91559417 44.22548121 -47.1875 33.5625 C-40.94869722 18.93414928 -33.15040777 9.45255851 -18.4375 2.625 C-12.3101297 0.42468391 -6.48582874 0.06898662 0 0 Z M-55.9747467 98.76623535 C-57.51422513 102.31583534 -57.61555281 105.50210454 -57.59155273 109.30273438 C-57.59841599 110.06596512 -57.60527924 110.82919586 -57.61235046 111.61555481 C-57.63059777 114.12931103 -57.62678451 116.64244199 -57.62109375 119.15625 C-57.62565616 120.90832726 -57.63096191 122.66040272 -57.63697815 124.41247559 C-57.64590487 128.08088461 -57.6434907 131.74907586 -57.63354492 135.41748047 C-57.62204848 140.11525053 -57.64227898 144.81226968 -57.67146206 149.5099411 C-57.68981849 153.12681846 -57.68953286 156.74351561 -57.68382454 160.36042786 C-57.68367129 162.092362 -57.68971827 163.82430834 -57.70211601 165.55619812 C-57.7170163 167.97869856 -57.7063578 170.39980832 -57.68920898 172.82226562 C-57.69887695 173.53514236 -57.70854492 174.2480191 -57.71850586 174.98249817 C-57.66851765 178.35955618 -57.26274204 180.43547624 -55.53114319 183.35876465 C-49.64187591 188.89646192 -44.21745721 189.00134373 -36.51977539 188.96655273 C-35.45725052 188.97341599 -34.39472565 188.98027924 -33.30000305 188.98735046 C-29.79491739 189.00562094 -26.29027922 189.00178047 -22.78515625 188.99609375 C-20.3442724 189.00065538 -17.90338985 189.0059609 -15.46250916 189.01197815 C-10.34905781 189.02090974 -5.23576265 189.01848539 -0.12231445 189.00854492 C6.42592579 188.99705482 12.97362682 189.01726782 19.52179623 189.04646206 C24.5618888 189.06482023 29.60185206 189.06453231 34.64196968 189.05882454 C37.05606404 189.05867128 39.47016713 189.0647192 41.88422966 189.07711601 C45.26162283 189.09201642 48.6380186 189.08135474 52.01538086 189.06420898 C53.0093689 189.07387695 54.00335693 189.08354492 55.02746582 189.09350586 C61.14468488 189.02857655 64.88529356 188.29328562 69.8125 184.5625 C73.08623473 180.65970225 73.24854873 176.94919798 73.21655273 172.03759766 C73.22341599 171.29708664 73.23027924 170.55657562 73.23735046 169.79362488 C73.25559776 167.35440701 73.25178354 164.91583375 73.24609375 162.4765625 C73.25065713 160.77411694 73.25596317 159.07167323 73.26197815 157.36923218 C73.2709056 153.80337027 73.26849102 150.23773236 73.25854492 146.671875 C73.24706594 142.11329701 73.26725175 137.55549489 73.29646206 132.99701881 C73.31485448 129.48128384 73.3145254 125.96573365 73.30882454 122.44996262 C73.30867164 120.76992074 73.31468992 119.08986608 73.32711601 117.40987015 C73.34207933 115.05482346 73.33131084 112.70119526 73.31420898 110.34619141 C73.32387695 109.6592067 73.33354492 108.97222198 73.34350586 108.26441956 C73.26228496 102.89365087 71.84607466 99.85383113 68.8125 95.5625 C65.84227271 93.65811926 63.53139385 93.31044065 60.0372467 93.30180359 C59.07976028 93.29471878 58.12227386 93.28763397 57.13577271 93.28033447 C56.09202484 93.28281189 55.04827698 93.28528931 53.97290039 93.2878418 C52.31621086 93.2801754 52.31621086 93.2801754 50.62605286 93.27235413 C46.97069905 93.25844014 43.31553341 93.25941625 39.66015625 93.26171875 C37.12194244 93.25783291 34.58372928 93.25349847 32.04551697 93.24873352 C26.72343572 93.24126747 21.40142369 93.24142736 16.0793457 93.24682617 C9.9319735 93.25286639 3.78483016 93.24055286 -2.36250299 93.2192561 C-8.28172033 93.1995054 -14.20086684 93.1964676 -20.12011909 93.19999123 C-22.63634338 93.19947732 -25.15257128 93.19422656 -27.66877556 93.18417931 C-31.18553234 93.17186032 -34.70175776 93.17857975 -38.21850586 93.19018555 C-39.26022949 93.18254181 -40.30195312 93.17489807 -41.37524414 93.16702271 C-47.77352244 93.2137573 -51.7459259 93.55195694 -55.9747467 98.76623535 Z " fill="#FFFFFF" transform="translate(684.1875,506.4375)"/>
<path d="M0 0 C3.48487453 2.24580803 5.47028564 4.1652366 7 8 C7.1171875 10.21875 7.1171875 10.21875 6.875 12.5 C6.81054688 13.2528125 6.74609375 14.005625 6.6796875 14.78125 C6 17 6 17 3.98046875 18.59375 C0.73571529 22.53609346 1.440696 27.05258785 1.4375 32 C1.42854981 33.97927021 1.40690615 35.95853357 1.37109375 37.9375 C1.3700061 39.25041016 1.3700061 39.25041016 1.36889648 40.58984375 C0.92074258 43.51782211 0.05199517 44.88569546 -2 47 C-5 47.5 -5 47.5 -8 47 C-10.09545904 44.85826126 -10.9295839 43.51143791 -11.34057617 40.52636719 C-11.32486572 39.62563477 -11.30915527 38.72490234 -11.29296875 37.796875 C-11.28330078 36.8171875 -11.27363281 35.8375 -11.26367188 34.828125 C-11.23853516 33.81234375 -11.21339844 32.7965625 -11.1875 31.75 C-11.17396484 30.71875 -11.16042969 29.6875 -11.14648438 28.625 C-11.11117607 26.08280208 -11.06186036 23.54166777 -11 21 C-11.94939453 20.56880859 -11.94939453 20.56880859 -12.91796875 20.12890625 C-15 19 -15 19 -16.3125 16.9375 C-17.28941281 12.76341801 -17.29597424 9.11136657 -16 5 C-11.58835566 -0.60041078 -6.70417859 -1.50266072 0 0 Z " fill="#FFFFFF" transform="translate(697,624)"/>
</svg>
