<svg xmlns="http://www.w3.org/2000/svg" width="200" height="200" viewBox="0 0 1080 1080">
  <path id="cvlogounlock"
        fill="#334FFF" stroke="#334FFF" stroke-width="1"
        d="M 509.00,93.21
           C 509.00,93.21 498.00,94.17 498.00,94.17
             498.00,94.17 473.00,97.27 473.00,97.27
             445.98,101.25 415.72,108.54 390.00,117.69
             268.17,161.04 173.04,252.06 124.60,372.00
             108.86,410.99 99.01,452.20 94.83,494.00
             94.83,494.00 93.00,515.00 93.00,515.00
             93.00,515.00 93.00,563.00 93.00,563.00
             93.00,563.00 93.91,573.00 93.91,573.00
             95.16,590.87 97.48,608.41 101.00,626.00
             112.84,685.20 134.49,737.74 168.00,788.00
             180.59,806.88 194.61,825.38 210.09,842.00
             260.19,895.78 316.48,932.58 385.00,958.42
             423.27,972.86 464.27,981.29 505.00,984.09
             505.00,984.09 515.00,985.00 515.00,985.00
             515.00,985.00 560.00,985.00 560.00,985.00
             575.07,984.98 597.86,981.77 613.00,979.25
             663.08,970.90 712.81,953.61 757.00,928.58
             801.77,903.22 842.01,870.96 875.72,832.00
             930.93,768.18 967.43,688.47 979.73,605.00
             979.73,605.00 984.00,561.00 984.00,561.00
             984.00,561.00 984.00,517.00 984.00,517.00
             983.98,503.72 980.68,478.52 978.41,465.00
             971.20,422.02 957.74,380.22 938.74,341.00
             920.88,304.13 895.28,267.34 867.83,237.00
             867.83,237.00 849.00,218.00 849.00,218.00
             811.47,180.47 763.66,149.71 715.00,128.72
             681.99,114.48 647.43,104.53 612.00,98.59
             597.57,96.17 574.32,93.02 560.00,93.21
             560.00,93.21 509.00,93.21 509.00,93.21 Z
           M 527.00,330.00
           C 527.00,330.00 495.00,412.00 495.00,412.00
             473.47,402.87 446.44,390.50 424.00,384.89
             411.96,381.88 402.21,381.24 390.00,380.32
             390.00,380.32 381.00,380.96 381.00,380.96
             362.26,381.78 345.11,386.07 329.00,396.06
             304.83,411.06 289.03,435.50 280.00,462.00
             273.04,482.45 270.38,501.61 268.91,523.00
             268.91,523.00 268.00,535.00 268.00,535.00
             267.93,581.80 272.43,636.73 307.01,672.00
             312.50,677.59 320.13,683.89 327.00,687.69
             334.56,691.87 342.63,695.22 351.00,697.37
             359.86,699.65 371.91,701.99 381.00,702.00
             381.00,702.00 399.00,702.00 399.00,702.00
             415.34,701.97 442.83,696.57 459.00,692.53
             459.00,692.53 509.00,678.00 509.00,678.00
             509.00,678.00 509.00,753.00 509.00,753.00
             509.00,755.21 509.22,758.71 507.98,760.58
             506.16,763.32 494.54,766.82 491.00,768.00
             473.44,773.86 455.35,778.58 437.00,781.13
             421.30,783.31 405.86,784.98 390.00,785.00
             390.00,785.00 379.00,785.82 379.00,785.82
             379.00,785.82 367.00,785.00 367.00,785.00
             317.00,784.42 262.45,767.84 227.04,731.00
             174.86,676.70 164.16,602.12 165.00,530.00
             165.00,530.00 166.83,507.00 166.83,507.00
             174.66,428.75 207.52,357.11 281.00,320.37
             335.57,293.08 404.76,291.59 463.00,306.88
             478.93,311.07 490.73,315.04 506.00,321.20
             506.00,321.20 527.00,330.00 527.00,330.00 Z
           M 822.00,304.00
           C 822.00,304.00 807.42,344.00 807.42,344.00
             807.42,344.00 782.05,412.00 782.05,412.00
             782.05,412.00 686.32,669.00 686.32,669.00
             686.32,669.00 655.05,753.00 655.05,753.00
             655.05,753.00 648.68,770.00 648.68,770.00
             648.68,770.00 644.50,777.98 644.50,777.98
             644.50,777.98 637.00,779.00 637.00,779.00
             637.00,779.00 556.00,779.00 556.00,779.00
             556.00,779.00 572.58,734.00 572.58,734.00
             572.58,734.00 604.58,648.00 604.58,648.00
             604.58,648.00 691.81,414.00 691.81,414.00
             691.81,414.00 723.05,330.00 723.05,330.00
             723.05,330.00 729.81,312.00 729.81,312.00
             729.81,312.00 733.51,305.02 733.51,305.02
             733.51,305.02 741.00,304.00 741.00,304.00
             741.00,304.00 822.00,304.00 822.00,304.00 Z
           M 843.00,629.00
           C 843.00,629.00 832.00,634.00 832.00,634.00
             829.78,628.88 820.78,612.03 817.52,608.00
             813.86,603.47 807.50,598.39 802.00,596.33
             779.70,587.96 753.36,607.27 755.09,631.00
             755.66,638.83 760.29,647.20 764.00,654.00
             765.50,656.75 767.28,660.42 770.10,661.98
             772.31,663.20 775.53,663.00 778.00,662.86
             778.00,662.86 825.00,662.86 825.00,662.86
             834.34,662.99 836.88,661.24 847.00,662.86
             856.76,663.86 863.37,662.63 870.78,671.46
             875.49,677.08 875.99,684.01 876.00,691.00
             876.00,691.00 876.00,753.00 876.00,753.00
             875.97,770.11 869.31,780.97 851.00,781.00
             851.00,781.00 747.00,781.00 747.00,781.00
             736.57,780.98 727.85,777.52 723.80,767.00
             721.50,761.03 722.00,751.48 722.00,745.00
             722.00,745.00 722.00,705.00 722.00,705.00
             722.00,695.41 720.63,681.15 725.97,673.01
             733.58,661.42 743.65,664.27 753.00,662.00
             746.22,646.27 738.74,633.95 744.04,616.00
             748.41,601.21 757.82,591.24 772.00,585.40
             777.78,583.02 779.66,582.08 786.00,582.00
             786.00,582.00 793.00,582.00 793.00,582.00
             813.67,582.07 825.31,594.04 835.00,611.00
             838.19,616.59 841.96,622.61 843.00,629.00 Z
           M 742.01,675.65
           C 734.95,678.75 734.04,682.83 734.00,690.00
             734.00,690.00 734.00,754.00 734.00,754.00
             734.02,765.43 738.29,769.85 750.00,770.00
             750.00,770.00 846.00,770.00 846.00,770.00
             858.25,769.98 863.94,767.09 864.00,754.00
             864.00,754.00 864.00,692.00 864.00,692.00
             863.98,679.34 860.98,675.02 848.00,675.00
             848.00,675.00 778.00,675.00 778.00,675.00
             778.00,675.00 742.01,675.65 742.01,675.65 Z
           M 798.00,698.42
           C 800.46,698.46 801.66,698.44 803.98,699.57
             809.87,702.43 812.27,708.93 809.86,714.96
             808.52,718.29 806.55,719.42 805.58,722.09
             804.88,724.03 805.00,726.92 805.00,729.00
             804.99,733.89 806.50,744.47 799.96,745.63
             791.42,747.14 793.01,733.95 793.00,729.00
             793.00,726.96 793.12,724.06 792.42,722.17
             791.86,720.67 780.41,707.51 793.02,700.09
             794.88,698.99 795.98,698.85 798.00,698.42 Z" />
</svg>
